<svg width="24" height="24" viewBox="0 0 24 24" fill="none" xmlns="http://www.w3.org/2000/svg">
<path d="M13 12L14.2857 10.7143C14.5714 10.4286 14.5714 10 14.2857 9.71429C14 9.42857 13.5714 9.42857 13.2857 9.71429L12 11L10.7143 9.71429C10.4286 9.42857 10 9.42857 9.71429 9.71429C9.42857 10 9.42857 10.4286 9.71429 10.7143L11 12L9.71429 13.2857C9.42857 13.5714 9.42857 14 9.71429 14.2857C9.85714 14.4286 10.0357 14.5 10.2143 14.5C10.3929 14.5 10.5714 14.4286 10.7143 14.2857L12 13L13.2857 14.2857C13.4286 14.4286 13.6071 14.5 13.7857 14.5C13.9643 14.5 14.1429 14.4286 14.2857 14.2857C14.5714 14 14.5714 13.5714 14.2857 13.2857L13 12Z" fill="white"/>
</svg>
