<svg width="414" height="242" viewBox="0 0 414 242" fill="none" xmlns="http://www.w3.org/2000/svg">
<circle cx="121.5" cy="121.5" r="85.5" fill="#FFB023"/>
<circle cx="121.5" cy="121.5" r="71.5" fill="#D7931F"/>
<path d="M118.608 156.49C113.146 156.49 107.87 155.869 102.78 154.628C97.6901 153.386 93.5002 151.772 90.2104 149.786L97.2866 133.771C100.39 135.571 103.835 137.03 107.622 138.147C111.47 139.203 115.194 139.73 118.795 139.73C120.905 139.73 122.55 139.606 123.729 139.358C124.971 139.047 125.871 138.644 126.429 138.147C126.988 137.589 127.267 136.937 127.267 136.192C127.267 135.013 126.616 134.082 125.312 133.399C124.009 132.716 122.271 132.157 120.098 131.723C117.988 131.226 115.66 130.73 113.115 130.233C110.57 129.675 107.994 128.961 105.387 128.092C102.842 127.223 100.483 126.074 98.3108 124.647C96.2004 123.219 94.4934 121.357 93.1899 119.06C91.8864 116.702 91.2346 113.784 91.2346 110.308C91.2346 106.273 92.3519 102.611 94.5865 99.3213C96.8832 95.9695 100.266 93.3004 104.735 91.3141C109.267 89.3277 114.884 88.3346 121.588 88.3346C125.995 88.3346 130.34 88.8001 134.623 89.7312C138.906 90.6623 142.754 92.09 146.168 94.0142L139.558 109.936C136.33 108.322 133.195 107.111 130.154 106.304C127.174 105.498 124.257 105.094 121.402 105.094C119.291 105.094 117.615 105.28 116.374 105.653C115.132 106.025 114.232 106.522 113.674 107.142C113.177 107.763 112.929 108.446 112.929 109.191C112.929 110.308 113.581 111.208 114.884 111.891C116.188 112.512 117.895 113.039 120.005 113.474C122.178 113.908 124.536 114.374 127.081 114.87C129.688 115.367 132.264 116.05 134.809 116.919C137.354 117.788 139.682 118.936 141.792 120.364C143.965 121.791 145.703 123.654 147.006 125.95C148.31 128.247 148.962 131.102 148.962 134.516C148.962 138.489 147.813 142.151 145.517 145.503C143.282 148.793 139.93 151.462 135.461 153.51C130.992 155.497 125.374 156.49 118.608 156.49ZM114.139 166.173V154.069H127.267V166.173H114.139ZM114.139 90.7554V78.6513H127.267V90.7554H114.139Z" fill="#AF6104"/>
<path d="M181.373 60.5C173.433 52.555 164.008 46.2527 153.635 41.9529C143.261 37.6531 132.143 35.4401 120.915 35.4401C109.687 35.4401 98.5692 37.6532 88.1958 41.9529C77.8225 46.2527 68.397 52.555 60.4576 60.5C52.5182 68.445 46.2203 77.877 41.9236 88.2576C37.6268 98.6382 35.4153 109.764 35.4153 121C35.4153 132.236 37.6268 143.362 41.9236 153.742C46.2203 164.123 52.5182 173.555 60.4576 181.5L120.915 121L181.373 60.5Z" fill="white" fill-opacity="0.2"/>
<path d="M223.021 121V83.9H233.303L248.143 108.121H242.737L257.153 83.9H267.435L267.541 121H256.146L256.04 101.072H257.842L247.984 117.661H242.472L232.19 101.072H234.416V121H223.021ZM288.534 121.53C285.248 121.53 282.333 120.894 279.789 119.622C277.281 118.315 275.302 116.53 273.853 114.269C272.405 112.008 271.68 109.411 271.68 106.478C271.68 103.545 272.405 100.948 273.853 98.687C275.302 96.4257 277.281 94.659 279.789 93.387C282.333 92.115 285.248 91.479 288.534 91.479C291.82 91.479 294.735 92.115 297.279 93.387C299.823 94.659 301.802 96.4257 303.215 98.687C304.664 100.948 305.388 103.545 305.388 106.478C305.388 109.411 304.664 112.008 303.215 114.269C301.802 116.53 299.823 118.315 297.279 119.622C294.735 120.894 291.82 121.53 288.534 121.53ZM288.534 112.202C289.418 112.202 290.213 111.99 290.919 111.566C291.626 111.142 292.191 110.506 292.615 109.658C293.039 108.775 293.251 107.715 293.251 106.478C293.251 105.206 293.039 104.164 292.615 103.351C292.191 102.503 291.626 101.867 290.919 101.443C290.213 101.019 289.418 100.807 288.534 100.807C287.651 100.807 286.856 101.019 286.149 101.443C285.443 101.867 284.877 102.503 284.453 103.351C284.029 104.164 283.817 105.206 283.817 106.478C283.817 107.715 284.029 108.775 284.453 109.658C284.877 110.506 285.443 111.142 286.149 111.566C286.856 111.99 287.651 112.202 288.534 112.202ZM329.277 91.479C331.503 91.479 333.517 91.9383 335.319 92.857C337.121 93.7403 338.535 95.136 339.559 97.044C340.619 98.952 341.149 101.425 341.149 104.464V121H329.171V106.531C329.171 104.729 328.853 103.457 328.217 102.715C327.581 101.938 326.716 101.549 325.62 101.549C324.808 101.549 324.048 101.743 323.341 102.132C322.67 102.485 322.122 103.086 321.698 103.934C321.31 104.782 321.115 105.93 321.115 107.379V121H309.137V92.009H320.532V100.489L318.253 98.051C319.384 95.8603 320.903 94.2173 322.811 93.122C324.755 92.0267 326.91 91.479 329.277 91.479ZM362.875 121.53C359.341 121.53 356.25 120.876 353.6 119.569C350.985 118.262 348.953 116.477 347.505 114.216C346.056 111.919 345.332 109.34 345.332 106.478C345.332 103.545 346.038 100.948 347.452 98.687C348.9 96.4257 350.861 94.659 353.335 93.387C355.843 92.115 358.652 91.479 361.762 91.479C364.624 91.479 367.256 92.0443 369.659 93.175C372.097 94.3057 374.04 95.984 375.489 98.21C376.973 100.436 377.715 103.192 377.715 106.478C377.715 106.902 377.697 107.379 377.662 107.909C377.626 108.404 377.591 108.863 377.556 109.287H355.243V103.51H371.196L366.691 105.047C366.691 103.916 366.479 102.962 366.055 102.185C365.666 101.372 365.118 100.754 364.412 100.33C363.705 99.8707 362.857 99.641 361.868 99.641C360.878 99.641 360.013 99.8707 359.271 100.33C358.564 100.754 358.016 101.372 357.628 102.185C357.239 102.962 357.045 103.916 357.045 105.047V106.849C357.045 108.086 357.292 109.146 357.787 110.029C358.281 110.912 358.988 111.584 359.907 112.043C360.825 112.467 361.938 112.679 363.246 112.679C364.588 112.679 365.684 112.502 366.532 112.149C367.415 111.796 368.334 111.266 369.288 110.559L375.542 116.866C374.128 118.385 372.379 119.551 370.295 120.364C368.245 121.141 365.772 121.53 362.875 121.53ZM387.337 131.812C385.747 131.812 384.122 131.565 382.461 131.07C380.836 130.611 379.528 129.992 378.539 129.215L382.514 121C383.115 121.459 383.786 121.83 384.528 122.113C385.305 122.396 386.047 122.537 386.754 122.537C387.814 122.537 388.627 122.307 389.192 121.848C389.757 121.424 390.217 120.77 390.57 119.887L391.789 116.813L392.637 115.647L401.912 92.009H413.254L401.329 121.583C400.269 124.233 399.032 126.3 397.619 127.784C396.241 129.268 394.686 130.31 392.955 130.911C391.259 131.512 389.386 131.812 387.337 131.812ZM390.146 122.325L377.532 92.009H389.828L398.52 114.587L390.146 122.325Z" fill="url(#paint0_linear_1_16)"/>
<path d="M231.766 157.592C229.595 157.592 227.499 157.345 225.476 156.852C223.453 156.359 221.788 155.717 220.481 154.928L223.293 148.564C224.526 149.279 225.895 149.859 227.4 150.303C228.929 150.722 230.409 150.932 231.84 150.932C232.679 150.932 233.332 150.883 233.801 150.784C234.294 150.661 234.652 150.5 234.874 150.303C235.096 150.081 235.207 149.822 235.207 149.526C235.207 149.057 234.948 148.687 234.43 148.416C233.912 148.145 233.221 147.923 232.358 147.75C231.519 147.553 230.594 147.355 229.583 147.158C228.572 146.936 227.548 146.652 226.512 146.307C225.501 145.962 224.563 145.505 223.7 144.938C222.861 144.371 222.183 143.631 221.665 142.718C221.147 141.781 220.888 140.621 220.888 139.24C220.888 137.637 221.332 136.181 222.22 134.874C223.133 133.542 224.477 132.481 226.253 131.692C228.054 130.903 230.286 130.508 232.95 130.508C234.701 130.508 236.428 130.693 238.13 131.063C239.832 131.433 241.361 132 242.718 132.765L240.091 139.092C238.808 138.451 237.563 137.97 236.354 137.649C235.17 137.328 234.011 137.168 232.876 137.168C232.037 137.168 231.371 137.242 230.878 137.39C230.385 137.538 230.027 137.735 229.805 137.982C229.608 138.229 229.509 138.5 229.509 138.796C229.509 139.24 229.768 139.598 230.286 139.869C230.804 140.116 231.482 140.325 232.321 140.498C233.184 140.671 234.122 140.856 235.133 141.053C236.169 141.25 237.193 141.522 238.204 141.867C239.215 142.212 240.14 142.669 240.979 143.236C241.842 143.803 242.533 144.543 243.051 145.456C243.569 146.369 243.828 147.503 243.828 148.86C243.828 150.439 243.372 151.894 242.459 153.226C241.571 154.533 240.239 155.594 238.463 156.408C236.687 157.197 234.455 157.592 231.766 157.592ZM258.414 157V153.411L257.822 152.449V145.641C257.822 144.654 257.514 143.902 256.897 143.384C256.305 142.866 255.331 142.607 253.974 142.607C253.062 142.607 252.137 142.755 251.199 143.051C250.262 143.322 249.46 143.705 248.794 144.198L246.13 138.685C247.314 137.945 248.733 137.378 250.385 136.983C252.038 136.588 253.654 136.391 255.232 136.391C258.71 136.391 261.399 137.168 263.298 138.722C265.222 140.276 266.184 142.743 266.184 146.122V157H258.414ZM252.679 157.37C251.027 157.37 249.645 157.086 248.535 156.519C247.425 155.952 246.587 155.199 246.019 154.262C245.452 153.3 245.168 152.239 245.168 151.08C245.168 149.773 245.501 148.663 246.167 147.75C246.833 146.837 247.845 146.147 249.201 145.678C250.583 145.209 252.322 144.975 254.418 144.975H258.636V149.008H255.75C254.862 149.008 254.209 149.156 253.789 149.452C253.395 149.723 253.197 150.143 253.197 150.71C253.197 151.179 253.37 151.573 253.715 151.894C254.085 152.19 254.579 152.338 255.195 152.338C255.763 152.338 256.281 152.19 256.749 151.894C257.243 151.573 257.6 151.08 257.822 150.414L258.895 152.893C258.575 154.398 257.896 155.52 256.86 156.26C255.824 157 254.431 157.37 252.679 157.37ZM275.172 157L267.032 136.761H275.616L281.795 153.189H277.466L284.052 136.761H291.97L283.83 157H275.172ZM303.88 157.37C301.414 157.37 299.255 156.914 297.405 156.001C295.58 155.088 294.162 153.843 293.15 152.264C292.139 150.661 291.633 148.86 291.633 146.862C291.633 144.815 292.127 143.002 293.113 141.423C294.125 139.844 295.494 138.611 297.22 137.723C298.972 136.835 300.933 136.391 303.103 136.391C305.101 136.391 306.939 136.786 308.616 137.575C310.318 138.364 311.675 139.536 312.686 141.09C313.722 142.644 314.24 144.568 314.24 146.862C314.24 147.158 314.228 147.491 314.203 147.861C314.179 148.206 314.154 148.527 314.129 148.823H298.552V144.79H309.689L306.544 145.863C306.544 145.074 306.396 144.408 306.1 143.865C305.829 143.298 305.447 142.866 304.953 142.57C304.46 142.249 303.868 142.089 303.177 142.089C302.487 142.089 301.882 142.249 301.364 142.57C300.871 142.866 300.489 143.298 300.217 143.865C299.946 144.408 299.81 145.074 299.81 145.863V147.121C299.81 147.984 299.983 148.724 300.328 149.341C300.674 149.958 301.167 150.426 301.808 150.747C302.45 151.043 303.227 151.191 304.139 151.191C305.077 151.191 305.841 151.068 306.433 150.821C307.05 150.574 307.691 150.204 308.357 149.711L312.723 154.114C311.737 155.175 310.516 155.989 309.06 156.556C307.63 157.099 305.903 157.37 303.88 157.37ZM316.879 157V136.761H324.834V142.866L323.539 141.127C324.156 139.548 325.143 138.364 326.499 137.575C327.856 136.786 329.484 136.391 331.383 136.391V143.791C331.013 143.742 330.68 143.705 330.384 143.68C330.113 143.655 329.829 143.643 329.533 143.643C328.275 143.643 327.239 143.976 326.425 144.642C325.636 145.283 325.241 146.406 325.241 148.009V157H316.879Z" fill="url(#paint1_linear_1_16)"/>
<defs>
<linearGradient id="paint0_linear_1_16" x1="316.5" y1="69" x2="316.5" y2="133" gradientUnits="userSpaceOnUse">
<stop stop-color="#AF6104"/>
<stop offset="1" stop-color="#703D00"/>
</linearGradient>
<linearGradient id="paint1_linear_1_16" x1="277" y1="121" x2="277" y2="166" gradientUnits="userSpaceOnUse">
<stop stop-color="#AF6104"/>
<stop offset="1" stop-color="#703D00"/>
</linearGradient>
</defs>
</svg>
