<svg width="1501" height="514" viewBox="0 0 1501 514" fill="none" xmlns="http://www.w3.org/2000/svg">
<circle cx="257.5" cy="257.5" r="255.5" fill="#3F7381"/>
<circle cx="257.5" cy="257.5" r="213.664" fill="#508C9B"/>
<path d="M242.245 384.824C240.204 384.824 238.442 384.082 236.958 382.598C235.474 381.114 234.732 379.352 234.732 377.311V358.113C219.893 355.887 207.558 351.899 197.727 346.149C187.896 340.399 180.476 333.535 175.468 325.559C170.645 317.583 168.141 309.236 167.956 300.518C167.956 298.849 168.512 297.458 169.625 296.345C170.924 295.046 172.408 294.397 174.077 294.397H226.942C229.91 294.397 232.136 294.861 233.619 295.788C235.289 296.53 237.051 297.643 238.906 299.127C240.761 300.425 242.616 301.631 244.471 302.744C246.511 303.672 248.737 304.414 251.148 304.97C253.745 305.341 256.527 305.526 259.495 305.526C265.802 305.526 270.81 304.877 274.52 303.579C278.415 302.095 280.363 300.147 280.363 297.736C280.363 295.51 279.25 293.655 277.024 292.171C274.984 290.687 271.367 289.389 266.173 288.276C260.979 286.977 253.745 285.772 244.471 284.659C229.817 282.618 217.111 279.187 206.352 274.364C195.594 269.541 187.247 262.956 181.311 254.609C175.561 246.077 172.686 235.689 172.686 223.447C172.686 207.495 178.251 194.047 189.38 183.103C200.695 171.973 215.812 164.739 234.732 161.401V141.924C234.732 139.884 235.474 138.122 236.958 136.638C238.442 135.154 240.204 134.412 242.245 134.412H275.911C277.952 134.412 279.714 135.154 281.198 136.638C282.682 138.122 283.424 139.884 283.424 141.924V162.235C296.593 165.018 307.63 169.469 316.534 175.591C325.623 181.712 332.578 188.482 337.401 195.902C342.224 203.321 344.728 210.37 344.914 217.048C344.914 218.717 344.264 220.201 342.966 221.499C341.853 222.612 340.555 223.169 339.071 223.169H283.424C280.827 223.169 278.694 222.798 277.024 222.056C275.54 221.314 273.964 220.201 272.294 218.717C271.367 217.79 269.605 216.769 267.008 215.656C264.596 214.358 261.443 213.709 257.548 213.709C252.91 213.709 249.479 214.451 247.253 215.935C245.213 217.233 244.192 219.088 244.192 221.499C244.192 223.169 245.027 224.745 246.696 226.229C248.366 227.713 251.426 229.012 255.878 230.125C260.33 231.238 266.729 232.351 275.077 233.463C293.626 235.689 308.465 239.306 319.594 244.315C330.909 249.137 339.071 255.63 344.079 263.791C349.273 271.953 351.869 282.062 351.869 294.119C351.869 305.434 348.902 315.543 342.966 324.446C337.216 333.165 329.147 340.399 318.759 346.149C308.557 351.714 296.779 355.609 283.424 357.835V377.311C283.424 379.352 282.682 381.114 281.198 382.598C279.714 384.082 277.952 384.824 275.911 384.824H242.245Z" fill="#2A6A7B"/>
<path d="M436.418 75.2135C412.693 51.4715 384.527 32.6383 353.528 19.7892C322.529 6.94013 289.305 0.326791 255.753 0.326792C222.2 0.326793 188.976 6.94013 157.977 19.7892C126.978 32.6383 98.8122 51.4715 75.0868 75.2135C51.3614 98.9555 32.5414 127.141 19.7014 158.162C6.86128 189.182 0.252579 222.43 0.252581 256.006C0.252583 289.582 6.86129 322.83 19.7014 353.85C32.5414 384.87 51.3614 413.056 75.0868 436.798L255.753 256.006L436.418 75.2135Z" fill="white" fill-opacity="0.13"/>
<path d="M576.815 277C574.775 277 573.013 276.258 571.529 274.774C570.045 273.29 569.303 271.528 569.303 269.488V89.7476C569.303 87.7072 570.045 85.9451 571.529 84.4611C573.013 82.9772 574.775 82.2352 576.815 82.2352H620.776C624.486 82.2352 627.269 83.2554 629.124 85.2958C630.978 87.3362 632.184 88.8201 632.741 89.7476L673.085 156.524L713.429 89.7476C713.985 88.8201 715.191 87.3362 717.046 85.2958C718.901 83.2554 721.683 82.2352 725.393 82.2352H769.354C771.395 82.2352 773.157 82.9772 774.641 84.4611C776.125 85.9451 776.867 87.7072 776.867 89.7476V269.488C776.867 271.528 776.125 273.29 774.641 274.774C773.157 276.258 771.395 277 769.354 277H718.994C716.953 277 715.191 276.258 713.707 274.774C712.223 273.29 711.481 271.528 711.481 269.488V193.251L693.118 223.301C692.19 224.784 690.892 226.361 689.222 228.031C687.738 229.514 685.605 230.256 682.823 230.256H663.346C660.564 230.256 658.338 229.514 656.669 228.031C655.185 226.361 653.979 224.784 653.052 223.301L634.688 193.251V269.488C634.688 271.528 633.946 273.29 632.462 274.774C630.978 276.258 629.216 277 627.176 277H576.815ZM881.607 279.782C864.542 279.782 850.166 277.464 838.48 272.826C826.795 268.189 817.798 261.233 811.492 251.959C805.37 242.684 801.846 231.277 800.919 217.736C800.733 213.47 800.64 209.111 800.64 204.659C800.64 200.022 800.733 195.663 800.919 191.582C801.846 177.855 805.649 166.448 812.326 157.359C819.004 148.084 828.186 141.128 839.872 136.491C851.557 131.854 865.469 129.535 881.607 129.535C897.745 129.535 911.656 131.854 923.342 136.491C935.028 141.128 944.21 148.084 950.888 157.359C957.565 166.448 961.368 177.855 962.295 191.582C962.666 195.663 962.852 200.022 962.852 204.659C962.852 209.111 962.666 213.47 962.295 217.736C961.368 231.277 957.751 242.684 951.444 251.959C945.323 261.233 936.419 268.189 924.733 272.826C913.048 277.464 898.672 279.782 881.607 279.782ZM881.607 235.265C886.986 235.265 890.325 233.781 891.623 230.813C892.922 227.66 893.757 222.837 894.128 216.345C894.313 213.562 894.406 209.667 894.406 204.659C894.406 199.651 894.313 195.755 894.128 192.973C893.757 186.852 892.922 182.214 891.623 179.061C890.325 175.722 886.986 174.053 881.607 174.053C876.413 174.053 873.074 175.722 871.59 179.061C870.292 182.214 869.457 186.852 869.086 192.973C868.901 195.755 868.808 199.651 868.808 204.659C868.808 209.667 868.901 213.562 869.086 216.345C869.457 222.837 870.292 227.66 871.59 230.813C873.074 233.781 876.413 235.265 881.607 235.265ZM990.843 277C988.802 277 987.04 276.258 985.556 274.774C984.072 273.29 983.33 271.528 983.33 269.488V139.83C983.33 137.79 984.072 136.027 985.556 134.543C987.04 133.06 988.802 132.318 990.843 132.318H1039.53C1041.57 132.318 1043.34 133.06 1044.82 134.543C1046.3 136.027 1047.05 137.79 1047.05 139.83V149.012C1051.68 143.633 1058.08 139.088 1066.24 135.378C1074.41 131.483 1083.4 129.535 1093.23 129.535C1102.69 129.535 1111.5 131.761 1119.67 136.213C1127.83 140.665 1134.41 147.528 1139.42 156.802C1144.61 166.077 1147.21 178.041 1147.21 192.695V269.488C1147.21 271.528 1146.47 273.29 1144.98 274.774C1143.5 276.258 1141.74 277 1139.7 277H1086.56C1084.52 277 1082.75 276.258 1081.27 274.774C1079.79 273.29 1079.04 271.528 1079.04 269.488V194.642C1079.04 189.634 1077.84 185.832 1075.43 183.235C1073.01 180.638 1069.58 179.339 1065.13 179.339C1060.68 179.339 1057.25 180.638 1054.84 183.235C1052.43 185.832 1051.22 189.634 1051.22 194.642V269.488C1051.22 271.528 1050.48 273.29 1048.99 274.774C1047.51 276.258 1045.75 277 1043.71 277H990.843ZM1245.66 279.782C1221.36 279.782 1201.98 273.847 1187.51 261.975C1173.22 249.918 1166.08 230.906 1166.08 204.937C1166.08 204.566 1166.08 204.195 1166.08 203.824C1166.08 203.453 1166.08 203.175 1166.08 202.989C1166.45 187.037 1169.89 173.589 1176.38 162.645C1183.06 151.701 1192.24 143.447 1203.92 137.882C1215.79 132.318 1229.61 129.535 1245.38 129.535C1263.56 129.535 1278.49 133.06 1290.18 140.108C1301.86 146.971 1310.49 156.153 1316.05 167.654C1321.8 178.968 1324.68 191.489 1324.68 205.215V213.562C1324.68 215.603 1323.94 217.365 1322.45 218.849C1320.97 220.333 1319.21 221.075 1317.16 221.075H1234.25C1234.25 221.26 1234.25 221.446 1234.25 221.631C1234.25 221.817 1234.25 222.095 1234.25 222.466C1234.25 226.176 1234.53 229.329 1235.09 231.926C1235.83 234.337 1237.03 236.192 1238.7 237.491C1240.37 238.789 1242.5 239.438 1245.1 239.438C1246.21 239.438 1247.14 239.253 1247.88 238.882C1248.81 238.511 1249.65 237.954 1250.39 237.212C1251.32 236.285 1252.24 235.357 1253.17 234.43C1254.84 232.761 1256.23 231.74 1257.34 231.369C1258.46 230.813 1260.13 230.535 1262.35 230.535H1314.94C1316.79 230.535 1318.28 231.091 1319.39 232.204C1320.69 233.317 1321.25 234.801 1321.06 236.656C1320.87 240.18 1319.21 244.446 1316.05 249.455C1313.08 254.277 1308.54 259.007 1302.42 263.645C1296.3 268.282 1288.51 272.177 1279.05 275.331C1269.59 278.298 1258.46 279.782 1245.66 279.782ZM1234.25 186.295H1256.51V186.017C1256.51 181.936 1256.05 178.597 1255.12 176.001C1254.38 173.404 1253.17 171.549 1251.5 170.436C1249.83 169.137 1247.79 168.488 1245.38 168.488C1242.97 168.488 1240.93 169.137 1239.26 170.436C1237.59 171.549 1236.29 173.404 1235.36 176.001C1234.62 178.597 1234.25 181.936 1234.25 186.017V186.295ZM1365.76 329.865C1364.09 329.865 1362.61 329.308 1361.31 328.195C1360.2 327.082 1359.64 325.691 1359.64 324.022C1359.64 323.651 1359.64 323.187 1359.64 322.631C1359.64 322.26 1359.73 321.796 1359.92 321.239L1382.18 267.818L1328.48 140.943C1328.29 140.386 1328.2 139.737 1328.2 138.995C1328.57 137.14 1329.31 135.564 1330.42 134.265C1331.72 132.967 1333.3 132.318 1335.15 132.318H1382.18C1384.96 132.318 1387 133.06 1388.3 134.543C1389.6 136.027 1390.52 137.511 1391.08 138.995L1413.9 202.433L1437.55 138.995C1438.29 137.326 1439.31 135.842 1440.61 134.543C1442.09 133.06 1444.22 132.318 1447.01 132.318H1493.47C1495.14 132.318 1496.62 132.967 1497.92 134.265C1499.22 135.378 1499.87 136.677 1499.87 138.161C1499.87 139.273 1499.78 140.201 1499.59 140.943L1421.13 323.187C1420.39 324.856 1419.27 326.34 1417.79 327.639C1416.31 329.123 1414.17 329.865 1411.39 329.865H1365.76Z" fill="#2A6A7B"/>
<path d="M633.113 441.79C619.867 441.79 608.948 440 600.356 436.42C591.764 432.84 585.32 428.126 581.024 422.279C576.728 416.432 574.461 410.226 574.222 403.663C574.222 402.589 574.58 401.694 575.296 400.978C576.131 400.143 577.086 399.725 578.16 399.725H612.17C614.079 399.725 615.511 400.023 616.466 400.62C617.54 401.097 618.674 401.813 619.867 402.768C621.06 403.603 622.254 404.379 623.447 405.095C624.76 405.692 626.192 406.169 627.743 406.527C629.414 406.766 631.204 406.885 633.113 406.885C637.17 406.885 640.392 406.467 642.779 405.632C645.285 404.677 646.538 403.424 646.538 401.873C646.538 400.441 645.822 399.248 644.39 398.293C643.077 397.338 640.75 396.503 637.409 395.787C634.068 394.952 629.414 394.176 623.447 393.46C614.02 392.147 605.845 389.94 598.924 386.837C592.003 383.734 586.633 379.498 582.814 374.128C579.115 368.639 577.265 361.956 577.265 354.08C577.265 345.965 579.532 338.805 584.067 332.6C588.721 326.395 595.105 321.562 603.22 318.101C611.454 314.64 621.001 312.91 631.86 312.91C640.81 312.91 648.746 314.103 655.667 316.49C662.588 318.757 668.436 321.8 673.209 325.619C677.982 329.318 681.622 333.316 684.128 337.612C686.634 341.908 687.947 346.025 688.066 349.963C688.066 351.037 687.648 351.992 686.813 352.827C686.097 353.543 685.262 353.901 684.307 353.901H648.507C646.836 353.901 645.464 353.662 644.39 353.185C643.435 352.708 642.421 351.992 641.347 351.037C640.75 350.44 639.617 349.784 637.946 349.068C636.395 348.233 634.366 347.815 631.86 347.815C628.877 347.815 626.669 348.292 625.237 349.247C623.924 350.082 623.268 351.276 623.268 352.827C623.268 353.901 623.805 354.915 624.879 355.87C625.953 356.825 627.922 357.66 630.786 358.376C633.65 359.092 637.767 359.808 643.137 360.524C655.07 361.956 664.617 364.283 671.777 367.505C679.056 370.608 684.307 374.784 687.529 380.035C690.87 385.286 692.541 391.789 692.541 399.546C692.541 408.257 689.916 415.775 684.665 422.1C679.534 428.425 672.493 433.317 663.543 436.778C654.593 440.119 644.45 441.79 633.113 441.79ZM733.58 441.79C726.778 441.79 720.751 440.537 715.501 438.031C710.25 435.525 706.133 432.124 703.15 427.828C700.286 423.532 698.854 418.699 698.854 413.329C698.854 404.618 702.374 397.816 709.415 392.923C716.575 387.911 726.121 384.391 738.055 382.362L757.029 379.319V379.14C757.029 376.037 756.73 373.77 756.134 372.338C755.656 370.906 754.165 370.19 751.659 370.19C749.988 370.19 748.616 370.548 747.542 371.264C746.587 371.861 745.513 372.756 744.32 373.949C743.007 375.262 741.336 375.918 739.308 375.918H708.878C707.684 375.918 706.67 375.56 705.835 374.844C705.119 374.128 704.82 373.173 704.94 371.98C705.059 369.713 706.014 367.087 707.804 364.104C709.594 361.001 712.338 358.018 716.038 355.154C719.856 352.29 724.689 349.903 730.537 347.994C736.503 346.085 743.663 345.13 752.017 345.13C760.131 345.13 767.172 346.025 773.139 347.815C779.225 349.486 784.237 351.992 788.175 355.333C792.113 358.555 795.036 362.612 796.946 367.505C798.974 372.278 799.989 377.708 799.989 383.794V435.167C799.989 436.48 799.511 437.613 798.557 438.568C797.602 439.523 796.468 440 795.156 440H763.831C762.518 440 761.384 439.523 760.43 438.568C759.475 437.613 758.998 436.48 758.998 435.167V430.155C757.327 432.542 755.179 434.63 752.554 436.42C750.048 438.091 747.184 439.403 743.962 440.358C740.74 441.313 737.279 441.79 733.58 441.79ZM745.931 415.298C748.317 415.298 750.346 414.821 752.017 413.866C753.807 412.911 755.179 411.42 756.134 409.391C757.088 407.243 757.566 404.618 757.566 401.515V401.336L747.005 403.663C743.902 404.379 741.814 405.334 740.74 406.527C739.666 407.72 739.129 408.973 739.129 410.286C739.129 411.121 739.367 411.957 739.845 412.792C740.441 413.508 741.217 414.105 742.172 414.582C743.246 415.059 744.499 415.298 745.931 415.298ZM845.905 440C844.115 440 842.802 439.523 841.967 438.568C841.251 437.613 840.595 436.599 839.998 435.525L805.63 352.469C805.511 352.111 805.451 351.693 805.451 351.216C805.451 350.023 805.869 349.008 806.704 348.173C807.539 347.338 808.554 346.92 809.747 346.92H839.998C841.788 346.92 843.101 347.397 843.936 348.352C844.891 349.307 845.547 350.261 845.905 351.216L860.225 392.923L874.545 351.216C874.903 350.261 875.5 349.307 876.335 348.352C877.29 347.397 878.662 346.92 880.452 346.92H910.703C911.896 346.92 912.911 347.338 913.746 348.173C914.581 349.008 914.999 350.023 914.999 351.216C914.999 351.693 914.939 352.111 914.82 352.469L880.452 435.525C879.975 436.599 879.318 437.613 878.483 438.568C877.648 439.523 876.335 440 874.545 440H845.905ZM969.124 441.79C953.491 441.79 941.021 437.971 931.713 430.334C922.524 422.577 917.93 410.346 917.93 393.639C917.93 393.4 917.93 393.162 917.93 392.923C917.93 392.684 917.93 392.505 917.93 392.386C918.169 382.123 920.376 373.472 924.553 366.431C928.849 359.39 934.756 354.08 942.274 350.5C949.911 346.92 958.802 345.13 968.945 345.13C980.64 345.13 990.246 347.397 997.764 351.932C1005.28 356.347 1010.83 362.254 1014.41 369.653C1018.11 376.932 1019.96 384.987 1019.96 393.818V399.188C1019.96 400.501 1019.48 401.634 1018.53 402.589C1017.57 403.544 1016.44 404.021 1015.13 404.021H961.785C961.785 404.14 961.785 404.26 961.785 404.379C961.785 404.498 961.785 404.677 961.785 404.916C961.785 407.303 961.964 409.331 962.322 411.002C962.799 412.553 963.575 413.747 964.649 414.582C965.723 415.417 967.095 415.835 968.766 415.835C969.482 415.835 970.079 415.716 970.556 415.477C971.153 415.238 971.69 414.88 972.167 414.403C972.764 413.806 973.36 413.21 973.957 412.613C975.031 411.539 975.926 410.883 976.642 410.644C977.358 410.286 978.432 410.107 979.864 410.107H1013.69C1014.89 410.107 1015.84 410.465 1016.56 411.181C1017.39 411.897 1017.75 412.852 1017.63 414.045C1017.51 416.312 1016.44 419.057 1014.41 422.279C1012.5 425.382 1009.58 428.425 1005.64 431.408C1001.7 434.391 996.69 436.897 990.604 438.926C984.518 440.835 977.358 441.79 969.124 441.79ZM961.785 381.646H976.105V381.467C976.105 378.842 975.807 376.694 975.21 375.023C974.733 373.352 973.957 372.159 972.883 371.443C971.809 370.608 970.496 370.19 968.945 370.19C967.394 370.19 966.081 370.608 965.007 371.443C963.933 372.159 963.098 373.352 962.501 375.023C962.024 376.694 961.785 378.842 961.785 381.467V381.646ZM1037.33 440C1036.02 440 1034.89 439.523 1033.93 438.568C1032.98 437.613 1032.5 436.48 1032.5 435.167V351.753C1032.5 350.44 1032.98 349.307 1033.93 348.352C1034.89 347.397 1036.02 346.92 1037.33 346.92H1068.66C1069.97 346.92 1071.1 347.397 1072.06 348.352C1073.01 349.307 1073.49 350.44 1073.49 351.753V358.018C1077.31 354.677 1081.54 351.992 1086.2 349.963C1090.97 347.934 1096.04 346.92 1101.41 346.92H1110.01C1111.32 346.92 1112.45 347.397 1113.41 348.352C1114.36 349.307 1114.84 350.44 1114.84 351.753V379.677C1114.84 380.99 1114.36 382.123 1113.41 383.078C1112.45 384.033 1111.32 384.51 1110.01 384.51H1086.91C1083.33 384.51 1080.65 385.405 1078.86 387.195C1077.07 388.985 1076.17 391.67 1076.17 395.25V435.167C1076.17 436.48 1075.7 437.613 1074.74 438.568C1073.79 439.523 1072.65 440 1071.34 440H1037.33Z" fill="#2A6A7B"/>
</svg>
