<svg width="209" height="63" viewBox="0 0 209 63" fill="none" xmlns="http://www.w3.org/2000/svg">
<circle cx="28.8521" cy="28.3611" r="27.8658" stroke="#378CE7" stroke-width="0.89"/>
<circle cx="33.9363" cy="33.8455" r="26.3108" stroke="#378CE7" stroke-width="4"/>
<path d="M75.0835 24.3679H77.6137L82.0129 35.1093H82.1748L86.574 24.3679H89.1041V38.186H87.1205V28.1867H86.9923L82.917 38.1658H81.2707L77.1954 28.18H77.0672V38.186H75.0835V24.3679ZM104.138 31.2769C104.138 32.7523 103.869 34.0208 103.329 35.0823C102.789 36.1394 102.049 36.9536 101.109 37.5248C100.173 38.0916 99.1096 38.375 97.9176 38.375C96.7211 38.375 95.6528 38.0916 94.7127 37.5248C93.7771 36.9536 93.0394 36.1371 92.4996 35.0756C91.9599 34.014 91.69 32.7478 91.69 31.2769C91.69 29.8016 91.9599 28.5353 92.4996 27.4783C93.0394 26.4167 93.7771 25.6026 94.7127 25.0358C95.6528 24.4646 96.7211 24.1789 97.9176 24.1789C99.1096 24.1789 100.173 24.4646 101.109 25.0358C102.049 25.6026 102.789 26.4167 103.329 27.4783C103.869 28.5353 104.138 29.8016 104.138 31.2769ZM102.074 31.2769C102.074 30.1524 101.892 29.2056 101.527 28.4364C101.167 27.6627 100.673 27.078 100.043 26.6821C99.4177 26.2818 98.7093 26.0816 97.9176 26.0816C97.1214 26.0816 96.4107 26.2818 95.7855 26.6821C95.1603 27.078 94.6655 27.6627 94.3011 28.4364C93.9413 29.2056 93.7614 30.1524 93.7614 31.2769C93.7614 32.4015 93.9413 33.3506 94.3011 34.1242C94.6655 34.8934 95.1603 35.4782 95.7855 35.8785C96.4107 36.2743 97.1214 36.4723 97.9176 36.4723C98.7093 36.4723 99.4177 36.2743 100.043 35.8785C100.673 35.4782 101.167 34.8934 101.527 34.1242C101.892 33.3506 102.074 32.4015 102.074 31.2769ZM117.891 24.3679V38.186H115.975L108.951 28.0518H108.823V38.186H106.738V24.3679H108.668L115.698 34.5156H115.826V24.3679H117.891ZM120.932 38.186V24.3679H129.596V26.1626H123.017V30.3728H129.143V32.1608H123.017V36.3913H129.676V38.186H120.932ZM131.314 24.3679H133.683L137.292 30.6495H137.441L141.051 24.3679H143.419L138.406 32.7613V38.186H136.328V32.7613L131.314 24.3679ZM152.924 27.9978C152.852 27.3591 152.555 26.8643 152.033 26.5134C151.511 26.1581 150.855 25.9804 150.063 25.9804C149.496 25.9804 149.006 26.0704 148.592 26.2503C148.178 26.4257 147.857 26.6686 147.627 26.979C147.402 27.2849 147.29 27.6335 147.29 28.0248C147.29 28.3532 147.366 28.6366 147.519 28.875C147.677 29.1134 147.881 29.3135 148.133 29.4755C148.39 29.6329 148.664 29.7656 148.956 29.8735C149.249 29.977 149.53 30.0625 149.8 30.1299L151.149 30.4808C151.59 30.5887 152.042 30.7349 152.506 30.9193C152.969 31.1038 153.398 31.3467 153.794 31.648C154.19 31.9494 154.509 32.3228 154.752 32.7681C155 33.2134 155.123 33.7464 155.123 34.3671C155.123 35.1498 154.921 35.8448 154.516 36.452C154.116 37.0593 153.533 37.5383 152.769 37.8892C152.008 38.24 151.089 38.4154 150.009 38.4154C148.974 38.4154 148.079 38.2513 147.324 37.9229C146.568 37.5945 145.977 37.129 145.549 36.5262C145.122 35.919 144.886 35.1993 144.841 34.3671H146.932C146.973 34.8664 147.135 35.2825 147.418 35.6154C147.706 35.9437 148.073 36.1889 148.518 36.3508C148.968 36.5082 149.46 36.587 149.996 36.587C150.585 36.587 151.109 36.4947 151.568 36.3103C152.031 36.1214 152.395 35.8605 152.661 35.5277C152.926 35.1903 153.059 34.7967 153.059 34.3469C153.059 33.9376 152.942 33.6025 152.708 33.3416C152.479 33.0807 152.166 32.8648 151.77 32.6938C151.379 32.5229 150.936 32.3722 150.441 32.2418L148.808 31.7965C147.702 31.4951 146.824 31.052 146.177 30.4673C145.533 29.8825 145.212 29.1089 145.212 28.1463C145.212 27.3501 145.428 26.6551 145.86 26.0614C146.291 25.4676 146.876 25.0066 147.614 24.6782C148.352 24.3454 149.184 24.1789 150.11 24.1789C151.046 24.1789 151.871 24.3431 152.586 24.6715C153.306 24.9998 153.873 25.4519 154.287 26.0277C154.701 26.5989 154.916 27.2556 154.934 27.9978H152.924ZM158.671 38.186H156.458L161.43 24.3679H163.839L168.812 38.186H166.599L162.692 26.8778H162.584L158.671 38.186ZM159.042 32.7748H166.221V34.5291H159.042V32.7748ZM170.568 24.3679L174.414 35.6221H174.569L178.415 24.3679H180.668L175.695 38.186H173.287L168.314 24.3679H170.568ZM182.664 38.186V24.3679H191.327V26.1626H184.748V30.3728H190.875V32.1608H184.748V36.3913H191.408V38.186H182.664ZM194.112 38.186V24.3679H199.037C200.108 24.3679 200.996 24.5523 201.702 24.9211C202.413 25.29 202.944 25.8005 203.295 26.4527C203.646 27.1005 203.821 27.8494 203.821 28.6995C203.821 29.5452 203.643 30.2896 203.288 30.9328C202.937 31.5716 202.406 32.0686 201.696 32.424C200.989 32.7793 200.101 32.957 199.031 32.957H195.299V31.1622H198.842C199.516 31.1622 200.065 31.0655 200.488 30.8721C200.915 30.6787 201.228 30.3976 201.426 30.0287C201.624 29.6599 201.723 29.2168 201.723 28.6995C201.723 28.1777 201.621 27.7257 201.419 27.3434C201.221 26.961 200.908 26.6686 200.481 26.4662C200.058 26.2593 199.503 26.1559 198.815 26.1559H196.197V38.186H194.112ZM200.933 31.9517L204.347 38.186H201.972L198.626 31.9517H200.933Z" fill="#333333"/>
</svg>
